<?xml version="1.0" standalone="no"?>
<!DOCTYPE svg PUBLIC "-//W3C//DTD SVG 20010904//EN"
 "http://www.w3.org/TR/2001/REC-SVG-20010904/DTD/svg10.dtd">
<svg version="1.0" xmlns="http://www.w3.org/2000/svg"
 width="700.000000pt" height="700.000000pt" viewBox="0 0 700.000000 700.000000"
 preserveAspectRatio="xMidYMid meet">
<metadata>
Created by potrace 1.14, written by Peter Selinger 2001-2017
</metadata>
<g transform="translate(0.000000,700.000000) scale(0.100000,-0.100000)"
fill="#000000" stroke="none">
<path d="M0 3500 l0 -3500 3500 0 3500 0 0 3500 0 3500 -3500 0 -3500 0 0
-3500z m1765 2413 c377 -128 492 -605 212 -885 -106 -107 -233 -159 -382 -159
-44 0 -87 2 -95 4 -216 51 -363 187 -425 393 -22 73 -14 245 15 319 43 111
117 205 213 271 122 82 317 107 462 57z m3770 12 c176 -46 307 -165 375 -340
20 -50 24 -79 24 -175 1 -131 -13 -188 -71 -284 -181 -298 -593 -347 -838
-100 -142 143 -194 353 -133 544 53 169 198 305 378 355 66 18 196 18 265 0z
m-3800 -1905 c89 -23 166 -69 240 -144 108 -109 155 -222 157 -371 3 -203
-109 -387 -296 -486 -33 -18 -63 -33 -66 -32 -3 0 -9 -1 -15 -3 -49 -15 -124
-22 -191 -19 -284 15 -506 253 -505 542 1 241 177 460 417 517 67 16 185 14
259 -4z m3790 5 c139 -27 294 -151 358 -285 83 -176 77 -344 -20 -524 -9 -16
-45 -59 -82 -95 -129 -130 -304 -181 -496 -146 -172 31 -362 214 -401 385 -4
19 -9 42 -11 50 -5 23 -5 162 1 185 14 64 22 86 49 145 38 82 146 192 234 238
34 18 64 32 65 32 2 -1 10 1 18 4 67 23 199 28 285 11z m-3785 -1911 c180 -52
322 -195 375 -377 22 -76 22 -208 0 -284 -53 -184 -202 -330 -388 -379 -71
-18 -237 -12 -302 11 -265 97 -415 366 -351 631 27 115 70 189 156 271 55 53
170 119 225 129 125 24 197 23 285 -2z m3805 0 c233 -61 394 -273 396 -520 1
-183 -102 -364 -261 -458 -93 -55 -144 -69 -263 -72 -93 -2 -118 1 -180 22
-370 126 -490 574 -233 871 45 52 155 125 221 146 108 36 211 39 320 11z"/>
</g>
</svg>
